<svg id="ePbje8SZKRX1" xmlns="http://www.w3.org/2000/svg" xmlns:xlink="http://www.w3.org/1999/xlink" viewBox="0 0 400 233.009709" shape-rendering="geometricPrecision" text-rendering="geometricPrecision"><path d="M148.951,67.945c-5.351,1.036-10.165,5.037-12.337,10.254-4.048,9.724.796,21.09,12.418,29.137c1.209.837,2.259,1.522,2.333,1.522s.743.393,1.487.874c3.1,2.003,10.024,5.074,14.048,6.23.577.166,1.363.426,1.748.579.385.152,1.119.367,1.632.478.513.11,1.352.318,1.865.463.512.144,1.561.407,2.331.584.769.178,1.672.39,2.006.473.439.109.648.048.75-.22.11-.286-.011-.37-.53-.37-.371,0-1.023-.175-1.45-.389-1.406-.705-1.515-.736-1.846-.526-.42.266-.978.277-.817.017.068-.109-.319-.328-.86-.487-.541-.158-1.442-.541-2.003-.85s-1.217-.562-1.457-.562-.437-.085-.437-.188c0-.102-.551-.379-1.224-.615-.673-.235-1.323-.518-1.445-.629-.289-.261-.827-.258-.827.006c0,.113.603.439,1.34.725.737.285,1.655.662,2.04.837l.699.319-.749.005c-.642.005-2.192-.45-3.913-1.149-.256-.104-1.201-.479-2.098-.833-10.335-4.075-18.229-10.072-22.807-17.326-5.234-8.293-3.94-19.003,2.956-24.458c2.496-1.976,5.566-3.424,7.73-3.649.769-.08,2.015-.208,2.768-.285c3.126-.32,12.316,3.024,15.275,5.558.514.44,1.305.889,1.567.889.291,0-1.273-1.235-2.44-1.926-7.11-4.214-12.342-5.536-17.753-4.488m.426,3.47c-.599.145-1.167.342-1.263.438-.095.096-.355.175-.577.175-1.108,0-4.779,2.445-6.198,4.128-4.058,4.812-4.573,11.658-1.357,18.033c1.634,3.24,6.843,9.412,9.202,10.903.321.203,1.044.74,1.608,1.193.563.454,1.367,1.034,1.786,1.291c2.914,1.785,4.296,2.59,5.876,3.424.991.523,2.009,1.095,2.262,1.269.575.398.842.407.695.024-.062-.162-.452-.442-.867-.622-.652-.283-5.15-2.732-5.92-3.223-1.58-1.008-3.852-2.595-4.507-3.15-5.24-4.432-8.06-7.681-9.762-11.247-4.084-8.557-1.749-17.325,5.566-20.895c2.898-1.415,3.168-1.479,6.177-1.465c4.529.019,7.33,1.068,13.287,4.973c1.282.84,3.083,2.134,4.002,2.875.92.741,1.723,1.347,1.786,1.347s.465.312.893.694s1.879,1.67,3.225,2.862c3.552,3.146,9.335,8.378,11.765,10.643c2.679,2.497,4.31,3.977,6.315,5.731.88.769,2.023,1.773,2.541,2.231.993.877,4.585,3.882,6.541,5.471c4.684,3.806,16.849,11.529,18.16,11.529.065,0,.725.278,1.466.617c2.221,1.018,6.34,2.457,9.04,3.157.513.134,1.195.33,1.515.436.74.246,3.73.793,6.294,1.151c4.205.588,12.668-.042,15.501-1.154.256-.101,1.168-.409,2.026-.685c14.451-4.647,20.016-19.147,11.281-29.397-5.773-6.774-15.013-9.868-25.8-8.639-2.827.323-6.161,1.086-8.253,1.891-.256.099-.656.241-.889.315-.232.075-.351.252-.264.394.159.257.468.226,2.435-.242c10.188-2.426,22.189-.425,27.456,4.577.244.232.95.894,1.569,1.471c8.603,8.022,6.26,18.989-5.266,24.658-4.589,2.257-14.11,3.805-17.771,2.89-.537-.134-1.973-.416-3.191-.627-1.218-.21-2.767-.519-3.443-.685-1.393-.342-1.94-.045-.584.318c6.271,1.681,15.123,1.827,20.228.332c3.089-.904,7.879-3.115,8.741-4.034.064-.068.596-.509,1.182-.98c2.334-1.874,4.914-5.761,5.235-7.886.068-.448.235-1.377.371-2.063c1.211-6.077-4.9-14.096-13.315-17.471-3.95-1.584-10.882-2.367-15.967-1.803-2.294.254-.963-.286,1.542-.626c7.965-1.083,17.272.961,21.601,4.744.421.368.863.669.983.669.425,0,3.549,3.408,4.68,5.106c4.472,6.715,2.896,15.941-3.681,21.55-2.388,2.037-8.054,5.279-9.224,5.279-.169,0-.406.089-.528.197-.285.254-3.085.873-6.011,1.329-11.535,1.799-26.324-2.398-39.316-11.157-3.064-2.066-6.461-4.505-7.226-5.188-.806-.721-3.608-3.057-5.011-4.179-.641-.512-1.751-1.456-2.465-2.097-.715-.641-2.491-2.215-3.947-3.497s-2.812-2.493-3.013-2.691c-2.866-2.821-12.609-11.633-15.972-14.445-2.232-1.866-6.351-4.946-7.627-5.701-.427-.253-1.353-.808-2.058-1.233-4.849-2.924-9.881-4.124-13.56-3.233m20.994,3.89c.307.255.61.412.674.347.2-.199-.453-.827-.852-.819-.294.006-.253.113.178.472m5.153,3.921c0,.128.709.83,1.574,1.56s2.295,1.97,3.177,2.754c.883.784,2.246,1.994,3.031,2.689c2.22,1.968,5.687,5.111,7.484,6.784.899.837,2.161,1.99,2.804,2.564.644.574,2.008,1.789,3.031,2.702c1.023.912,2.909,2.517,4.191,3.566s3.065,2.523,3.963,3.276c3.341,2.803,7.241,5.452,12.378,8.406c3.415,1.964,6.401,3.489,6.831,3.489.193,0,1.281.501,2.854,1.313.858.442,1.278.428.897-.031-.16-.192-.393-.349-.518-.349s-.61-.173-1.079-.385c-.954-.432-3.115-1.416-4.697-2.141-.577-.264-1.626-.809-2.331-1.211-4.219-2.404-5.169-2.967-6.637-3.934-2.258-1.488-5.211-3.609-6.183-4.442-.449-.385-1.288-1.077-1.865-1.539s-1.311-1.065-1.632-1.341c-.32-.275-1.212-1.001-1.981-1.612-1.451-1.153-3.259-2.733-4.738-4.141-.471-.449-1.081-.973-1.355-1.166-.274-.192-1.585-1.354-2.914-2.581-1.328-1.228-3.359-3.105-4.513-4.172s-2.832-2.571-3.73-3.342c-.897-.771-1.684-1.471-1.748-1.555-.064-.085-.956-.878-1.981-1.764-1.026-.886-2.203-1.916-2.617-2.289-1.076-.97-1.696-1.375-1.696-1.108m6.178,34.217c-1.687.605-3.524,2.987-3.67,4.758-.068.834,1.212,1.435,2.854,1.34c1.365-.08,2.491.278,3.13.994.913,1.025,1.395.89,1.953-.547.261-.673.536-1.381.611-1.573.134-.346.07.064-.329,2.098-.249,1.271-1.624,5.897-1.801,6.06-.147.135-.008-.672.477-2.775.462-2.001.391-2.12-1.281-2.12-1.473,0-2.598-.426-2.973-1.127-.229-.428-1.651-.971-2.544-.971-1.513,0-1.51,4.424.004,6.574c1.037,1.472,4.344,3.267,5.122,2.781.333-.208.461-.171.654.189.149.278.924.666,2.046,1.025.994.318,2.699.902,3.789,1.298c5.007,1.817,7.799-.038,9.198-6.111c1.22-5.294-.444-7.762-6.401-9.494-.577-.168-1.149-.392-1.271-.498-.121-.106-.441-.192-.711-.192-.269,0-.589-.094-.711-.209-.808-.762-2.028-.462-2.267.558-.06.257-.077.126-.037-.289.083-.87-.336-1.398-1.255-1.586-.344-.07-1.004-.228-1.468-.35-1.102-.291-1.975-.244-3.119.167m3.862.451c.696.206,1.334.415,1.417.465.34.206-1.386,6.15-1.836,6.323-.179.069-.607-.133-.951-.448-.77-.703-2.368-1.231-3.14-1.037-1.089.273-2.798-.511-2.656-1.22.671-3.34,3.748-5.093,7.166-4.083m4.78,1.585c.76.309,2.115.789,3.013,1.067c3.047.945,4.188,1.755,5.259,3.734c1.021,1.886-.516,8.445-2.387,10.19-1.57,1.463-3.474,1.533-7.366.268-5.1-1.657-4.786-1.305-3.891-4.364.325-1.108.69-2.382.813-2.831s.377-1.34.566-1.981c.911-3.103,1.797-6.09,1.883-6.352.138-.418.549-.365,2.11.269m-10.947,4.811c.352.134.885.487,1.183.786.681.681,2.361,1.166,3.313.957.999-.219,1.104.209.529,2.143-.259.87-.604,2.137-.768,2.816-.373,1.547-.591,1.733-1.614,1.377-3.26-1.134-4.905-3.435-4.559-6.379.239-2.041.473-2.249,1.916-1.7M95.338,169.437c-6.119,1.981-8.746,8.567-5.824,14.603.983,2.03,4.64,4.771,6.367,4.771.291,0,.654.125.806.277.181.18,1.231.282,3.019.291c4.137.022,5.639-.625,5.65-2.434.003-.45.107-1.171.231-1.603.528-1.841-.491-2.105-1.415-.367-1.929,3.627-8.099,2.649-10.287-1.629-2.129-4.164-.714-11.753,2.197-11.781.217-.002.459-.108.538-.236.228-.37,4.364-.286,5.305.108c1.099.459,1.959,1.535,2.156,2.697.158.935.658,1.425,1.033,1.014.271-.297.492-4.822.255-5.206-.508-.822-7.901-1.194-10.031-.505m34.509.009c-.375.7-3.04,7.287-3.04,7.513c0,.111-.219.699-.486,1.307-.911,2.075-1.105,2.55-2.081,5.09-1.421,3.695-1.412,3.677-2.014,4.131-.775.585-.969.348-.771-.94.311-2.021-.608-2.637-1.369-.918-.494,1.117-.961,1.317-3.07,1.317-3.083,0-3.027.16-3.029-8.698-.001-7.021.077-7.616.998-7.622.737-.005,1.19-.355,1.024-.789-.173-.449-7.7-.572-7.973-.13-.223.36.338.922.92.922c1.048,0,1.067.148,1.067,8.171c0,8.247-.099,9.079-1.079,9.079-.552,0-.998.564-.689.873.244.245,18.148.254,18.625.01.524-.268.16-.817-.615-.927-.834-.119.063-4.256,1.06-4.889.5-.317,4.986-.236,5.261.096.487.587,1.493,3.584,1.545,4.604l.053,1.049l1.032.157c1.906.291,4.756.216,5.24-.138.248-.182.557-.253.686-.159c2.27,1.67,7.892.875,9.667-1.367c2.787-3.519,1.433-7.805-3.347-10.593-2.06-1.202-2.707-1.983-2.707-3.271c0-3.076,4.779-3.161,5.603-.099.51,1.893,1.39.847,1.39-1.651c0-2.223-.5-2.574-3.664-2.575-4.66-.002-7.356,2.645-6.702,6.579.326,1.962,1.243,3.038,4.479,5.254c2.367,1.621,3.065,2.715,2.763,4.328-.606,3.232-5.754,2.839-6.28-.479-.381-2.404-1.299-1.766-1.513,1.052-.229,3-1.641,2.912-2.992-.185-1.196-2.743-1.209-2.775-2.356-5.828-2.25-5.984-4.041-10.362-4.308-10.531-.502-.319-1.08-.208-1.328.257m29.477.119c-2.196,1.019-3.38,2.739-3.38,4.911c0,2.592,1.286,4.241,5.383,6.903c3.969,2.58,1.52,7.611-2.709,5.564-.91-.44-1.508-1.225-1.508-1.978c0-1.398-1.295-2.054-1.495-.758-.671,4.352-.053,5.119,4.164,5.166c8.429.094,9.826-8.552,2.093-12.942-1.721-.976-2.247-1.628-2.373-2.941-.305-3.174,4.616-3.461,5.555-.324.574,1.915,1.38.944,1.38-1.662v-1.721l-.824-.393c-1.301-.62-4.78-.523-6.286.175m27.506-.298c-4.829,1.64-7.336,4.947-7.341,9.684-.005,4.931,3.095,9.012,7.574,9.97c4.329.926,8.138.561,9.075-.869.5-.763.606-4.212.132-4.307-.222-.045-.596.403-1.025,1.228-2.032,3.903-8.8,2.396-10.636-2.369-1.758-4.561-.417-9.77,2.889-11.216.796-.349,4.951-.396,5.159-.059.08.128.339.233.576.233.625,0,1.6,1.272,1.906,2.487.259,1.029.745,1.506,1.118,1.099.263-.286.475-4.849.243-5.224-.405-.656-8.128-1.181-9.67-.657m77.604.282c-6.058,2.252-8.765,10.097-5.208,15.093.246.345.448.733.448.862c0,.391,2.193,2.233,3.285,2.759c8.374,4.032,17.328-3.229,15.001-12.165-1.47-5.646-7.761-8.693-13.526-6.549m36.057-.338c-.264.167-.351,1.856-.466,9.051-.151,9.429-.176,9.617-1.3,9.617-1.355,0-2.863-1.412-6.179-5.787l-1.648-2.175l1.026-1.14c3.032-3.373,2.632-7.499-.869-8.941-.92-.379-10.817-.579-11.171-.225-.326.326.34.992,1.06,1.062l.758.073.181,2.681c.234,3.451-.016,13.763-.344,14.157-.134.162-.428.295-.653.295-.569,0-1.052.598-.672.832.448.278,7.261.288,7.711.013.552-.339.093-.845-.766-.845-.98,0-1.219-.679-1.334-3.788l-.102-2.739h1.068h1.068l1.809,2.705c2.608,3.899,3.533,4.666,5.843,4.846c2.229.173,9.308.062,9.52-.15.34-.34-.149-.874-.799-.874-1.22,0-1.291-.295-1.472-6.142-.091-2.963-.133-5.421-.093-5.461.041-.041.996.954,2.123,2.21c4.599,5.127,10.235,10.791,10.736,10.791c1.014,0,1.047-.255,1.214-9.457.146-8.047.194-8.808.568-8.991.224-.11.591-.29.816-.4.224-.11.407-.346.407-.524c0-.397-6.335-.609-6.719-.225-.361.361.273.949,1.023.949.362,0,.742.131.846.292.175.271.509,11.346.349,11.591-.083.129-1.39-1.263-6.92-7.374-6.034-6.666-5.793-6.451-6.619-5.927m-197.927.369c.705.19,1.571.346,1.923.347l.641.003v2.35c0,2.362-.372,3.133-.711,1.474-.772-3.775-8.239-4.27-10.646-.706-1.855,2.746-1.95,7.521-.208,10.494c2.77,4.726,9.198,5.568,11.087,1.452.559-1.219.762-.75.494,1.141-.356,2.518-1.3,3.014-5.401,2.835-3.307-.143-3.724-.233-6.035-1.299-6.281-2.897-6.505-13.693-.351-16.99c2.565-1.374,6.455-1.839,9.207-1.101m47.576-.082c1.228.413,1.268.493,1.142,2.281-.115,1.631-.516,2.342-.653,1.158-.38-3.269-6.319-2.953-6.337.338-.006,1.322.626,2.119,2.794,3.518c2.456,1.587,4.059,3.212,4.408,4.47c1.22,4.394-1.54,7.788-6.327,7.778-3.436-.007-4.184-.632-3.979-3.319.136-1.773.77-2.341.77-.688c0,2.266,4.396,3.562,6.146,1.811c1.85-1.85,1.26-4.029-1.627-6.001-3.907-2.67-4.864-4.035-4.712-6.723.197-3.489,4.572-5.904,8.375-4.623m14.983.086l.844.352v1.745c0,1.647-.304,2.316-.607,1.338-1.053-3.397-6.386-3.125-6.386.325c0,1.263.718,2.133,2.904,3.52c7.042,4.466,5.764,12.193-2.015,12.177-3.417-.007-4.244-.673-4.007-3.225.176-1.891.408-2.093.82-.716.973,3.246,6.123,3.558,6.967.422.526-1.951-.164-3.174-2.766-4.907-3.594-2.393-4.35-3.487-4.35-6.293c0-3.714,4.763-6.34,8.596-4.738m28.446-.001c.629.191,1.494.347,1.923.347h.778v2.317c0,2.781-.356,3.386-.799,1.359-.177-.806-1.453-2.277-1.975-2.277-.218,0-.525-.129-.682-.287-.426-.425-4.676-.391-5.541.045-3.464,1.747-4.86,6.482-3.254,11.034c1.998,5.662,9.49,7.566,11.644,2.961l.491-1.049.07,1.355c.154,2.963-1.064,3.771-5.399,3.583-8.733-.378-13.034-6.327-10.149-14.037c1.578-4.218,7.933-6.856,12.893-5.351m37.783-.126c-6.314.139-7.271.456-3.932,1.303.658.167.659,16.515.001,16.94-1.652,1.069-3.707-.42-7.504-5.432l-1.747-2.307l1.052-1.291c2.749-3.375,2.55-7.114-.46-8.623-1.317-.661-11.447-.853-11.689-.222-.181.471.281.796,1.139.801.946.005.995.442.978,8.745-.017,7.776-.104,8.508-1.011,8.508-.585,0-1.079.594-.693.832.306.189,7.128.328,7.607.155.524-.189.306-.742-.349-.888-.353-.078-.811-.188-1.018-.243-.446-.119-.667-1.594-.67-4.46l-.002-1.923h1.035h1.036l1.747,2.622c3.537,5.31,2.55,4.922,12.681,4.981c9.784.056,9.206.218,9.093-2.541-.08-1.977-.627-2.467-1.112-.996-.401,1.214-1.001,1.528-2.919,1.528-2.639,0-2.68-.061-2.68-3.976v-3.25h1.953c2.075,0,2.369.136,2.512,1.163.045.325.26.615.487.658.586.112.875-.842.875-2.885c0-1.903-.179-2.08-1.398-1.383-.372.212-1.28.336-2.506.341l-1.923.008v-3.03-3.03h2.106h2.106l.45,1.049c.804,1.876,1.256,1.376,1.543-1.71l.155-1.67-.674.052c-.371.028-3.192.107-6.269.174m39.644.142c4.505,1.447,6.847,4.522,6.857,9.003.026,12.625-17.43,14.492-19.593,2.095-1.245-7.134,5.843-13.31,12.736-11.098m34.258,4.061c2.039,2.243,3.815,4.194,3.947,4.334.132.141,1.273,1.373,2.537,2.739s2.408,2.484,2.543,2.484c.381,0,.052-12.053-.342-12.528-.166-.2-.617-.501-1.002-.669-.625-.272-.39-.306,2.215-.313l2.913-.008-.751.458c-.989.603-.954.285-1.079,9.796-.11,8.281-.183,9.175-.742,9.044-.373-.086-8.385-8.403-10.901-11.316-2.681-3.103-2.572-3.29-2.279,3.921.251,6.178.282,6.3,1.747,6.725.478.139-1.087.216-4.668.23l-5.387.021-1.093-.962c-.601-.529-1.894-2.181-2.873-3.671-2.054-3.126-1.975-3.051-3.239-3.056-1.455-.005-1.575.275-1.425,3.325.155,3.146.396,3.785,1.543,4.091.642.171-.051.226-2.885.231-3.224.006-3.622-.032-2.936-.281c1.207-.436,1.25-.748,1.278-9.256.028-8.574.064-8.341-1.373-8.99-.608-.275-.05-.306,4.313-.237c5.229.081,5.676.166,7.147,1.36c1.765,1.432,1.508,4.698-.551,7.001-1.618,1.809-1.594,1.589-.362,3.267c4.009,5.464,6.453,7.531,7.954,6.728.736-.394.77-.761.898-9.69.074-5.112.218-8.742.354-8.913.337-.423.457-.312,4.499,4.135m-173.596-2.681c.312.769,1.816,4.593,3.343,8.496c2.995,7.657,3.431,8.46,4.794,8.821.72.191.314.238-2.223.258-3.002.023-3.1.009-2.957-.441.081-.256-.068-1.069-.332-1.807-.264-.737-.669-1.865-.9-2.506l-.421-1.166-2.896-.066c-3.138-.071-3.706.156-3.72,1.484-.003.267-.078.558-.165.645-.967.967-.977,3.343-.015,3.62.503.146-2.376.219-8.567.219-6.148,0-9.068-.074-8.572-.217c1.286-.372,1.313-.553,1.33-8.948.017-8.733.011-8.783-1.206-9.283-.844-.347-.744-.36,2.737-.362c3.169-.002,3.527.035,2.908.301-1.211.52-1.276.944-1.275,8.247.002,9.129-.089,8.905,3.608,8.905c2.318,0,3.384-.487,3.384-1.549c0-.173.105-.315.233-.315.129,0,.233.613.233,1.373c0,3.282,1.578,1.946,3.55-3.005c2.056-5.162,4.662-11.783,5.121-13.009.641-1.711,1.228-1.622,2.008.305m37.693-1.288c-.232.375.071.681.882.891l.746.193.061,8.233c.063,8.456.024,8.866-.847,8.874-.683.007-1.114.405-.789.73.348.347,7.406.476,8.059.147.628-.317.059-.88-.89-.88-1.302,0-1.293.066-1.226-8.855l.061-8.217.816-.264c.452-.146.816-.419.816-.613c0-.428-7.43-.658-7.689-.239m71.517.146c-.164.426.283.784.985.789c1.016.007,1.037.181,1.037,8.314c0,8.27-.08,8.939-1.072,8.939-.675,0-.971.458-.513.793.799.584,9.776.316,11.033-.33c3.881-1.997,4.061-7.4.327-9.82l-1.108-.718.82-1.074c1.959-2.566,1.6-5.437-.84-6.724-1.348-.711-10.406-.855-10.669-.169m-65.04.316c-1.023.624-1.044.833-.96,9.618.082,8.519.027,8.248,1.748,8.581.535.104-.692.176-3.073.182-3.459.007-3.859-.029-3.147-.286c1.108-.399,1.106-.384,1.138-9.425l.028-7.773-.724-.677-.724-.676l3.23.001l3.229.001-.745.454m42.699.267c3.031,1.534,3.166,4.783.333,8.02-1.391,1.589-1.383,1.608,2.801,6.642c2.442,2.937,4.542,3.98,5.947,2.953.599-.438.909-5.56.729-12.025-.148-5.313-.182-5.461-1.374-5.963-.533-.224.44-.273,5.069-.255l5.729.022-.003,1.282c-.004,1.796-.27,2.111-.892,1.058l-.496-.842-2.393.067-2.392.066v3.147v3.147l2.448-.014c1.346-.008,2.693-.102,2.994-.208l.546-.194-.167,1.607c-.204,1.955-.185,1.932-.894,1.109-.533-.621-.713-.674-2.529-.749-2.619-.107-2.582-.163-2.479,3.779.097,3.753.222,3.987,2.254,4.221c2.353.272,3.637-.243,4.011-1.608.067-.247.266-.497.442-.556.336-.112.264,2.631-.084,3.195-.111.18-2.68.257-8.556.257h-8.396l-1.333-1.34c-.733-.737-1.852-2.164-2.487-3.17-1.966-3.116-2.076-3.215-3.457-3.135l-1.194.069-.068,2.192c-.07,2.277.263,4.562.704,4.834.141.087.58.236.975.33.405.097-.911.172-3.01.172-2.917,0-3.564-.052-2.972-.243c1.198-.384,1.302-1.134,1.313-9.499.012-8.028-.009-8.164-1.331-8.766-.667-.304-.26-.329,4.156-.263c4.696.071,4.942.098,6.056.661m32.669-.198c2.501,1.338,2.772,4.294.601,6.55l-.865.898.685.501c3.79,2.774,4.51,6.041,1.926,8.738-1.517,1.582-1.921,1.673-7.322,1.637-2.665-.017-4.621-.075-4.346-.129c1.348-.264,1.359-.335,1.437-9.185l.072-8.133-.616-.571c-.338-.314-.843-.618-1.121-.675-.277-.057,1.593-.086,4.157-.063c3.858.035,4.788.109,5.392.432m14.016.82c-5.016,2.467-4.679,12.729.52,15.846c4.584,2.748,8.556-.721,8.474-7.401-.052-4.164-1.397-6.792-4.276-8.349-.996-.538-3.706-.594-4.718-.096m-52.345.1c-.295.295-.415,7.254-.138,7.976.309.807,3.193.499,4.007-.428c1.483-1.69,1.461-4.948-.046-6.624-.931-1.036-3.17-1.577-3.823-.924m33.675-.124c-.289.289-.176,6.257.125,6.558c1.303,1.303,3.916-.679,3.916-2.971c0-2.53-2.701-4.927-4.041-3.587m39.139.211c-.471.471-.548,7.517-.087,7.978.365.365,2.993.351,3.459-.019c1.477-1.171,1.976-4.742.913-6.543-.832-1.41-3.432-2.269-4.285-1.416m-70.066.53c3.225,1.531,2.282,7.495-1.186,7.495-1.514,0-1.608-.238-1.608-4.064c0-4.23.309-4.611,2.794-3.431m33.253-.25c2.151,1.735,1.554,5.686-.868,5.741l-1.03.023-.065-3.089-.065-3.088.764.005c.42.003.989.186,1.264.408m20.854-.051c2.706,1.4,4.171,4.301,4.171,8.262c0,5.723-2.9,8.741-7.041,7.33-4.19-1.427-6.122-7.961-3.961-13.39.845-2.123,4.627-3.342,6.831-2.202m18.273.046c3.358.881,2.831,7.75-.595,7.75-1.67,0-1.619.124-1.619-3.995c0-3.963.172-4.456,1.398-4.006.193.071.56.184.816.251m-158.541,3.962c-.074.225-.499,1.373-.945,2.552-1.109,2.939-1.096,2.969,1.309,3.053c2.609.091,2.597.118,1.422-3.202-.966-2.73-1.458-3.392-1.786-2.403m1.447,2.565c.901,2.72.941,2.622-1.078,2.622-1.998,0-1.991.369-.093-4.871.188-.518.371-.166,1.171,2.249m115.641.912c-.212.213-.191,7.359.023,7.667c1.931,2.78,5.976.027,5.18-3.525-.639-2.852-3.898-5.446-5.203-4.142m3.312,1.425c2.971,2.971,1.383,8.313-1.982,6.669l-.902-.44-.064-3.672-.065-3.671h.95c.822,0,1.098.149,2.063,1.114" transform="translate(.000001 0.000001)" fill="#fccaa5" fill-rule="evenodd"/><path d="M196.97,40.937c-.705.184-1.492.426-1.749.538-.256.112-.833.341-1.282.51-5.888,2.219-9.701,8.597-10.625,17.774l-.137,1.366-.854-.132c-.47-.073-1.956-.194-3.302-.269s-3.482-.25-4.747-.39c-2.661-.293-2.701-.27-2.711,1.554-.004.653-.306,2.057-.687,3.193-.591,1.763-1.145,4.047-1.904,7.844-.216,1.084.3,1.874,1.236,1.892.217.005.542.217.721.473.285.407.345-.169.479-4.603.085-2.788.223-6.16.308-7.492l.153-2.423l3.634.186c1.999.102,4.631.196,5.848.209l2.214.022.17-1.515c1.434-12.749,7.638-19.087,18.197-18.59c10.055.474,16.008,8.547,16.545,22.436l.054,1.398l1.166.194c.641.107,1.69.334,2.331.506l1.165.312-2.244.019c-2.682.022-2.679.02-3.007,2.487-.422,3.164-.503,3.592-.685,3.592-.096,0-.229-1.215-.295-2.701-.081-1.849-.22-2.802-.44-3.021-.292-.291-30.111-.585-30.39-.3-.127.13-.584,5.952-.584,7.433c0,1.498-.32,1.854-.564.629-.312-1.568-.576-3.147-.829-4.954-.144-1.025-.366-2.195-.494-2.598l-.232-.734-3.362-.168c-4.306-.216-3.974-.424-4.152,2.605-.295,5.011-.389,11.045-.146,9.403.124-.833.304-3.74.4-6.459.206-5.789.054-5.489,2.626-5.193c1.086.125,2.523.228,3.194.229c1.409.002,1.255-.305,1.81,3.604.561,3.954,1.489,7.075,2.007,6.755.115-.071.216-1.932.225-4.136.01-2.204.088-4.479.175-5.056l.158-1.049l14.918.084c8.205.046,14.961.124,15.014.173.052.049.178,1.164.28,2.478.222,2.86.422,4.141.649,4.141.151,0,.846-2.885,1.347-5.594.23-1.24.593-1.349,4.621-1.385c2.541-.023,3.653-.338,2.082-.59-.504-.081-1.336-.241-1.848-.357-.513-.115-1.457-.271-2.098-.346-2.611-.306-2.368,0-2.549-3.22-.519-9.27-4.007-15.928-10.109-19.294-.679-.375-1.419-.682-1.643-.682s-.508-.095-.629-.212c-.955-.914-6.777-1.269-9.429-.576m1.515,5.7c-3.899.529-7.31,3.19-9.267,7.23-1.782,3.678-2.832,7.905-1.963,7.905.169,0,1.979.158,4.021.352c2.042.193,5.968.563,8.724.821s5.956.583,7.11.721c1.153.139,2.884.346,3.846.461c4.258.51,5.361.535,5.361.123c0-.942-1.023-4.88-1.774-6.829-3.25-8.438-8.31-11.836-16.058-10.784m5.975.595c3.783,1.146,5.718,2.79,8.301,7.05.417.689.759,1.346.759,1.46c0,.115.1.391.223.613c1.227,2.228,2.417,8.161,1.576,7.858-.26-.093-2.267-.316-7.277-.808-1.026-.101-3.333-.357-5.128-.569-3.808-.451-6.81-.729-11.655-1.081-4.353-.315-4.245-.226-3.476-2.904.33-1.15.657-2.329.726-2.619.068-.29.217-.585.33-.655s.205-.298.205-.507c0-1.441,3.798-5.939,5.796-6.865c2.867-1.328,7.051-1.751,9.62-.973M171.329,66.667c0,.384-.105.699-.233.699-.26,0-.322-.999-.078-1.243.263-.264.311-.181.311.544m-.826,4.82c-.396,3.038-.577,3.455-1.127,2.585-.207-.329.441-3.634,1.201-6.123.349-1.145.314.562-.074,3.538m56.263-.441c-2.366,5.478-2.318,28.761.088,42.008.384,2.115.752,4.189.818,4.609.072.46.317.867.618,1.025.472.247.478.238.121-.181-.208-.243-.444-.861-.525-1.374-.082-.513-.249-1.509-.371-2.215-.748-4.289-1.073-6.713-1.408-10.489-.13-1.474-.341-3.782-.469-5.128-.39-4.133-.273-13.082.246-18.765.702-7.688.796-7.952,1.003-2.797.181,4.508.522,10.527.739,13.054.293,3.419.615,6.383.81,7.459.116.641.329,2.109.474,3.263.34,2.718.808,5.281,1.391,7.625.258,1.034.468,2.094.468,2.356c0,.261.096.798.213,1.191.931,3.133,1.647,6.735,1.399,7.033-.217.263-.173.327.224.327.585,0,.602-.193.163-1.874-.967-3.707-1.258-4.895-1.511-6.168-.578-2.918-.75-3.757-.953-4.662-.483-2.151-1.791-11.067-2.085-14.219-.144-1.539-.366-3.794-.492-5.012-.127-1.218-.308-5.759-.401-10.092-.165-7.643-.181-7.85-.56-6.974M166.811,82.939c-.064.104-.338,1.337-.607,2.739-.583,3.031-.885,4.531-1.182,5.875-.121.547-.22,1.222-.22,1.499c0,.278-.102.827-.226,1.22-.379,1.198-2.158,10.574-2.834,14.935-.12.77-.276,1.78-.349,2.246-.072.466-.033.908.088.983.121.074.228-.153.238-.505.022-.763.733-4.884,1.696-9.833.495-2.543.911-4.783,1.515-8.159.289-1.616,1.606-8.028,2.094-10.198.154-.686.602-.664,1.232.06.561.645.629,1.432.292,3.398-.118.694-.32,1.944-.448,2.778-.499,3.246-2.036,12.993-2.611,16.55-.135.833-.349,2.197-.477,3.03s-.371,2.11-.541,2.837c-.255,1.088-.256,1.301-.004,1.204.175-.067.37-.682.455-1.438.083-.726.236-1.636.342-2.02.105-.385.314-1.539.465-2.564.15-1.026.368-2.337.485-2.914.315-1.558,1.087-6.492,1.513-9.674.557-4.164.724-5.343,1.147-8.132l.386-2.538-.76-.784c-.725-.748-1.439-1-1.689-.595m3.483,3.599c-.14.863-.832,23.061-.831,26.682.001,2.16.045,2.405.478,2.637.437.234.453.216.184-.214-.297-.475.333-27.978.66-28.831.222-.578.668-.309,2.536,1.525l1.771,1.74-.138,1.29c-.076.71-.244,3.178-.374,5.486-.129,2.308-.334,5.769-.454,7.692-.12,1.924-.333,5.385-.472,7.693-.21,3.461-.324,4.25-.649,4.505-.354.278-.335.302.188.233.573-.075.586-.123.74-2.757.087-1.474.275-4.516.418-6.76.143-2.243.357-5.967.476-8.275.118-2.308.285-5.404.37-6.882l.155-2.686-2.101-1.918c-2.328-2.125-2.771-2.299-2.957-1.16m-9.647,29.488c-.115.224-.276.88-.357,1.457-.081.576-.304,1.888-.497,2.913-.192,1.026-.462,2.652-.6,3.613-.137.962-.352,2.43-.477,3.264-.124.833-.33,2.249-.458,3.147-.127.897-.332,2.313-.455,3.146-.347,2.352-.708,4.877-.916,6.411-.104.769-.365,2.605-.58,4.079-.985,6.768-1.075,6.384,1.559,6.594c2.551.202,4.773,1.136,8.393,3.526.352.233.641.352.641.264c0-.265-1.251-1.853-1.748-2.22-.257-.189-.676-.566-.933-.838-.595-.63-3.359-2.051-4.975-2.558-1.393-.437-1.42-.55-.741-3.136.383-1.457,1.34-5.952,1.862-8.742.239-1.282.665-3.484.944-4.895.28-1.41.597-3.036.705-3.613.107-.577.471-2.465.808-4.196.337-1.73.712-3.723.833-4.428.121-.706.282-1.614.357-2.019.282-1.515-2.694-3.08-3.365-1.769m2.465.548c.623.235.635.458.16,2.89-.2,1.026-.462,2.415-.583,3.088-.531,2.978-.686,3.827-1.159,6.352-.704,3.757-.872,4.631-1.12,5.828-1.168,5.639-1.992,9.581-2.142,10.256-.881,3.964-.922,3.788.991,4.286c1.174.306,3.642,1.6,4.943,2.593.801.611.183.654-.846.058-1.682-.973-3.663-1.588-5.587-1.737l-1.833-.141.123-.723c.067-.397.283-2.034.479-3.636.666-5.445.934-7.454,1.528-11.422.125-.834.321-2.197.436-3.031.114-.833.589-3.822,1.055-6.643.466-2.82.946-5.796,1.068-6.612.308-2.077.467-2.167,2.487-1.406m6.585,1.37c-.711.449-.401,37.007.311,36.77.339-.112.617-2.24,1.332-10.192.109-1.218.312-3.421.45-4.895s.355-3.887.484-5.361c.128-1.475.286-3.205.351-3.846.772-7.597,1.028-11.623.757-11.894-.441-.441-3.215-.879-3.685-.582m2.392.598c1.15.208,1.119.096.872,3.158-.118,1.462-.379,4.757-.579,7.321-.447,5.71-2.004,21.642-2.128,21.775-.447.48-.706-31.15-.263-32.231.124-.304.332-.395.699-.307.287.069.917.197,1.399.284m58.584,9.863c-.231.374,2.069,7.157,3.515,10.366c1.695,3.76,1.977,3.4-3.069,3.921-1.282.132-2.96.323-3.73.424-.769.101-2.814.358-4.545.572s-3.776.494-4.546.623c-5.496.918-8.391,1.394-9.845,1.617-.799.123-2.792.498-4.429.834-1.636.336-3.395.694-3.907.796-2.803.555-3.834.754-4.814.93-.94.169-2.406.522-5.793,1.397-.448.116-1.392.326-2.097.467-1.228.244-3.19.756-4.429,1.155-.599.192-.805.249-4.779,1.312-8.702,2.329-7.98,2.95,1.748,1.503.834-.124,2.879-.391,4.546-.595c4.64-.565,6.059-.747,9.091-1.166c3.229-.445,4.256-.562,13.17-1.496c1.218-.128,3.526-.4,5.128-.606c2.835-.363,4.607-.544,9.907-1.012c2.718-.24,8.556-.814,12.238-1.203c1.218-.128,3.473-.335,5.011-.46c5.632-.454,5.751-.519,4.59-2.487-2.72-4.613-4.409-8.165-6.742-14.178l-.905-2.331-1.269-.14c-.697-.077-1.857-.221-2.577-.32-.883-.121-1.361-.096-1.468.077m3.571.583l1.493.266.908,2.331c1.964,5.042,5.346,12.12,6.77,14.169.71,1.022.433,1.265-1.615,1.415-1.003.073-2.977.235-4.387.359-1.411.124-3.876.341-5.478.481-2.771.243-7.711.742-11.772,1.19-1.025.113-2.966.309-4.312.435-2.73.255-7.995.824-10.839,1.171-1.026.125-3.753.442-6.061.705-2.308.262-4.93.577-5.827.7-2.047.279-4.512.59-8.392,1.059-1.667.201-3.555.458-4.196.571-4.868.859-7.995.865-4.662.009.641-.165,2.267-.608,3.613-.985c1.346-.376,4.126-1.099,6.177-1.605c2.052-.506,4.097-1.016,4.546-1.133.93-.243,2.155-.521,4.662-1.057.961-.205,2.115-.467,2.564-.581.955-.242,5.475-1.143,6.993-1.394.577-.095,2.937-.503,5.245-.906c5.802-1.015,8.386-1.42,12.82-2.013c1.539-.205,3.479-.469,4.313-.586c1.351-.19,3.086-.381,7.531-.832c1.771-.179,1.814-.371.674-2.965-.519-1.181-1.096-2.566-1.281-3.079-1.696-4.691-2.729-7.654-2.729-7.83c0-.274,1.361-.23,3.242.105" fill="#9de4e0" fill-rule="evenodd"/><path d="M197.086,41.396c-.769.194-1.661.416-1.981.495-.321.078-1.055.405-1.632.725s-1.259.696-1.515.836c-4.417,2.408-7.311,8.117-8.223,16.222l-.17,1.515-2.214-.022c-1.217-.013-3.849-.107-5.848-.209l-3.634-.186-.154,2.423c-.085,1.332-.223,4.733-.306,7.557l-.152,5.133l1.471,1.044c.809.574,1.728,1.285,2.042,1.582.737.695.639,1.318.962-6.118.157-3.581.337-6.597.402-6.702.142-.229,1.522-.24,4.826-.038l2.477.151.228.723c.126.397.346,1.562.49,2.587.253,1.807.517,3.386.829,4.954.244,1.225.564.869.564-.629c0-1.481.457-7.303.584-7.433.279-.285,30.098.009,30.39.3.22.219.359,1.172.44,3.021.066,1.486.199,2.701.295,2.701.182,0,.263-.428.685-3.592.328-2.467.325-2.465,3.007-2.487l2.244-.019-1.165-.312c-.641-.172-1.69-.399-2.331-.506l-1.166-.194-.054-1.398c-.463-11.988-4.644-19.169-12.766-21.926-1.638-.556-6.734-.673-8.625-.198m8.042,5.542c5.011,1.589,9.025,7.124,10.714,14.773.694,3.147.789,2.95-1.332,2.775-.993-.082-2.593-.244-3.554-.359-.962-.115-2.693-.322-3.846-.461-1.154-.138-4.354-.463-7.11-.721s-6.682-.628-8.724-.821c-2.042-.194-3.852-.352-4.021-.352-.869,0,.181-4.227,1.963-7.905c2.889-5.965,9.657-8.912,15.91-6.929m-34.11,19.185c-.244.244-.182,1.243.078,1.243.128,0,.233-.315.233-.699c0-.725-.048-.808-.311-.544m-.441,1.826c-.76,2.489-1.408,5.794-1.201,6.123.55.87.731.453,1.127-2.585.388-2.976.423-4.683.074-3.538m55.812,7.459c-.898,6.255-1.277,18.318-.751,23.893.128,1.346.339,3.654.469,5.128.337,3.789.681,6.351,1.41,10.489.125.706.291,1.722.369,2.26.164,1.116.81,1.823,1.834,2.006.385.069,1.119.233,1.632.366.512.132,1.016.156,1.119.054.158-.159-.79-4.565-1.489-6.917-.117-.393-.213-.93-.213-1.191c0-.262-.21-1.322-.468-2.356-.583-2.344-1.051-4.907-1.391-7.625-.145-1.154-.359-2.622-.476-3.263-.188-1.027-.489-3.828-.801-7.459-.179-2.077-.615-9.69-.781-13.637l-.162-3.846-.301,2.098m-59.365,8.333c-.488,2.17-1.805,8.582-2.094,10.198-.611,3.415-1.023,5.632-1.494,8.042-1.134,5.796-1.838,10.094-1.689,10.311.122.177,2.204,1.228,2.432,1.228.104,0,.519-1.989.828-3.963.131-.833.347-2.197.482-3.03.135-.834.609-3.823,1.055-6.644.445-2.82.909-5.757,1.031-6.526.122-.77.341-2.186.487-3.147.145-.962.363-2.317.484-3.011.34-1.96.272-2.751-.29-3.398-.63-.724-1.078-.746-1.232-.06m3.76,3.073c-.075.196-.321,6.717-.546,14.49l-.41,14.134.543.439c.299.242.788.44,1.086.44.299,0,.608.105.688.233.204.331,1.043.289,1.166-.058.056-.16.214-2.127.35-4.371.136-2.243.346-5.652.466-7.576.12-1.923.324-5.384.453-7.692.13-2.308.298-4.776.374-5.486l.138-1.29-1.771-1.74c-1.87-1.836-2.314-2.103-2.537-1.523m-9.803,29.462c-.075.121-.235.888-.356,1.704-.122.816-.602,3.792-1.068,6.612-.466,2.821-.941,5.81-1.055,6.643-.115.834-.311,2.197-.436,3.031-.594,3.968-.862,5.977-1.528,11.422-.196,1.602-.412,3.239-.479,3.636l-.123.723l1.833.141c1.924.149,3.905.764,5.587,1.737c1.029.596,1.647.553.846-.058-1.301-.993-3.769-2.287-4.943-2.593-1.913-.498-1.872-.322-.991-4.286.15-.675.974-4.617,2.142-10.256.248-1.197.416-2.071,1.12-5.828.473-2.525.628-3.374,1.159-6.352.121-.673.383-2.062.583-3.088.475-2.432.463-2.655-.16-2.89-1.002-.377-1.996-.516-2.131-.298m9.01,2.289c-.443,1.081-.184,32.711.263,32.231.124-.133,1.681-16.065,2.128-21.775.2-2.564.461-5.859.579-7.321.247-3.062.278-2.95-.872-3.158-.482-.087-1.112-.215-1.399-.284-.367-.088-.575.003-.699.307m61.011,10.318c0,.176,1.033,3.139,2.729,7.83.185.513.762,1.898,1.281,3.079c1.14,2.594,1.097,2.786-.674,2.965-4.445.451-6.18.642-7.531.832-.834.117-2.774.381-4.313.586-4.434.593-7.018.998-12.82,2.013-2.308.403-4.668.811-5.245.906-1.518.251-6.038,1.152-6.993,1.394-.449.114-1.603.376-2.564.581-2.507.536-3.732.814-4.662,1.057-.449.117-2.494.627-4.546,1.133-2.051.506-4.831,1.229-6.177,1.605-1.346.377-2.972.82-3.613.985-3.333.856-.206.85,4.662-.009.641-.113,2.529-.37,4.196-.571c3.88-.469,6.345-.78,8.392-1.059.897-.123,3.519-.438,5.827-.7c2.308-.263,5.035-.58,6.061-.705c2.844-.347,8.109-.916,10.839-1.171c1.346-.126,3.287-.322,4.312-.435c4.061-.448,9.001-.947,11.772-1.19c1.602-.14,4.067-.357,5.478-.481c1.41-.124,3.384-.286,4.387-.359c2.048-.15,2.325-.393,1.615-1.415-1.424-2.049-4.806-9.127-6.77-14.169l-.908-2.331-1.493-.266c-1.881-.335-3.242-.379-3.242-.105" fill="#1abfb7" fill-rule="evenodd"/><path d="M150.816,68.065c-.321.103-1.073.197-1.671.21-.599.013-1.386.174-1.748.358-.363.184-1.391.68-2.284,1.101-9.47,4.469-12.392,16.863-6.265,26.57c4.578,7.254,12.472,13.251,22.807,17.326.897.354,1.842.729,2.098.833c1.713.695,3.271,1.155,3.913,1.153l.749-.001-.668-.348c-.367-.192-.774-.349-.904-.349-.131,0-1.311-.524-2.624-1.165-1.312-.641-2.534-1.166-2.715-1.166-.18,0-.535-.143-.788-.318-.253-.174-1.271-.746-2.262-1.269-1.58-.834-2.962-1.639-5.876-3.424-.419-.257-1.223-.837-1.786-1.291-.564-.453-1.287-.99-1.608-1.193-2.359-1.491-7.568-7.663-9.202-10.903-3.216-6.375-2.701-13.221,1.357-18.033c1.368-1.623,5.084-4.128,6.124-4.128.181,0,.511-.098.734-.218c3.039-1.634,9.334-.422,14.74,2.838.705.425,1.631.98,2.058,1.233c1.276.755,5.395,3.835,7.627,5.701c1.92,1.606,3.55,3.049,9.312,8.25c1.877,1.694,5.699,5.249,6.66,6.195.201.198,1.557,1.409,3.013,2.691s3.232,2.856,3.947,3.497c.714.641,1.824,1.585,2.465,2.097c1.403,1.122,4.205,3.458,5.011,4.179.765.683,4.162,3.122,7.226,5.188c12.992,8.759,27.781,12.956,39.316,11.157c2.926-.456,5.726-1.075,6.011-1.329.122-.108.359-.197.528-.197c1.17,0,6.836-3.242,9.224-5.279c6.577-5.609,8.153-14.835,3.681-21.55-1.131-1.698-4.255-5.106-4.68-5.106-.12,0-.562-.301-.983-.669-4.329-3.783-13.636-5.827-21.601-4.744-2.505.34-3.836.88-1.542.626c5.085-.564,12.017.219,15.967,1.803c8.415,3.375,14.526,11.394,13.315,17.471-.136.686-.303,1.615-.371,2.063-.321,2.125-2.901,6.012-5.235,7.886-.586.471-1.118.912-1.182.98-.862.919-5.652,3.13-8.741,4.034-5.777,1.691-15.167,1.308-21.912-.894-1.282-.419-2.855-.895-3.496-1.057-.641-.163-1.428-.424-1.748-.581-.321-.156-1.039-.507-1.596-.78s-1.107-.497-1.223-.497c-1.711,0-14.385-7.848-19.209-11.895-.898-.753-2.681-2.227-3.963-3.276s-3.168-2.654-4.191-3.566c-1.023-.913-2.387-2.128-3.031-2.702-.643-.574-1.905-1.727-2.804-2.564-1.797-1.673-5.264-4.816-7.484-6.784-.785-.695-2.148-1.907-3.031-2.693-.882-.786-2.233-1.957-3.002-2.602-.77-.646-1.571-1.381-1.782-1.634s-.998-.917-1.748-1.477c-.751-.559-1.484-1.121-1.628-1.25-.145-.128-.502-.39-.795-.582-.292-.193-.855-.616-1.252-.942-.396-.326-1.001-.713-1.344-.861-.342-.148-.842-.457-1.111-.687-3.631-3.109-13.793-6.398-16.797-5.436m31.162,45.692c-1.496.449-3.234,2.497-3.58,4.22-.142.709,1.567,1.493,2.656,1.22.772-.194,2.37.334,3.14,1.037.344.315.772.517.951.448.45-.173,2.176-6.117,1.836-6.323-1.081-.651-3.764-.974-5.003-.602m6.256,1.453c-.086.262-.972,3.249-1.883,6.352-.189.641-.443,1.532-.566,1.981s-.488,1.723-.813,2.831c-.895,3.059-1.209,2.707,3.891,4.364c5.851,1.901,7.819.942,9.499-4.631c1.593-5.285.199-7.948-5.005-9.561-.898-.278-2.253-.758-3.013-1.067-1.561-.634-1.972-.687-2.11-.269m-10.47,5.206c-1.266,3.297.539,6.653,4.276,7.953c1.023.356,1.241.17,1.614-1.377.164-.679.509-1.946.768-2.816.575-1.934.47-2.362-.529-2.143-.952.209-2.632-.276-3.313-.957-.97-.97-2.555-1.342-2.816-.66M95.571,169.787c-8.116,2.782-9.33,14.44-1.863,17.884c2.311,1.066,2.728,1.156,6.035,1.299c4.101.179,5.045-.317,5.401-2.835.268-1.891.065-2.36-.494-1.141-1.889,4.116-8.317,3.274-11.087-1.452-1.742-2.973-1.647-7.748.208-10.494c2.407-3.564,9.874-3.069,10.646.706.339,1.659.711.888.711-1.474v-2.35l-.641-.003c-.352-.001-1.218-.157-1.923-.347-1.934-.519-5.153-.424-6.993.207m49.193.207c-2.158,1.077-2.883,2.075-2.999,4.127-.152,2.688.805,4.053,4.712,6.723c2.887,1.972,3.477,4.151,1.627,6.001-1.75,1.751-6.146.455-6.146-1.811c0-1.653-.634-1.085-.77.688-.205,2.687.543,3.312,3.979,3.319c4.787.01,7.547-3.384,6.327-7.778-.349-1.258-1.952-2.883-4.408-4.47-2.168-1.399-2.8-2.196-2.794-3.518.018-3.291,5.957-3.607,6.337-.338.137,1.184.538.473.653-1.158.126-1.788.086-1.868-1.142-2.281-1.571-.529-3.72-.331-5.376.496m14.685,0c-2.29,1.143-2.922,2.08-2.922,4.328c0,2.806.756,3.9,4.35,6.293c2.602,1.733,3.292,2.956,2.766,4.907-.844,3.136-5.994,2.824-6.967-.422-.412-1.377-.644-1.175-.82.716-.237,2.552.59,3.218,4.007,3.225c7.779.016,9.057-7.711,2.015-12.177-2.186-1.387-2.904-2.257-2.904-3.52c0-3.45,5.333-3.722,6.386-.325.303.978.607.309.607-1.338v-1.745l-.844-.352c-1.519-.635-3.929-.461-5.674.41m27.049-.145c-9.409,3.157-8.751,16.665.915,18.789.577.127,2.112.277,3.412.333c4.335.188,5.553-.62,5.399-3.583l-.07-1.355-.491,1.049c-2.154,4.605-9.646,2.701-11.644-2.961-1.606-4.552-.21-9.287,3.254-11.034.865-.436,5.115-.47,5.541-.045.157.158.464.287.682.287.522,0,1.798,1.471,1.975,2.277.443,2.027.799,1.422.799-1.359v-2.317h-.778c-.429,0-1.294-.156-1.923-.347-1.815-.551-4.994-.431-7.071.266m78.197.005c-10.57,3.895-7.673,19.764,3.491,19.122c6-.345,9.679-4.293,9.667-10.374-.014-6.758-6.628-11.155-13.158-8.748m36.06-.329c-.136.171-.28,3.801-.354,8.913-.128,8.929-.162,9.296-.898,9.69-1.501.803-3.945-1.264-7.954-6.728-1.232-1.678-1.256-1.458.362-3.267c2.059-2.303,2.316-5.569.551-7.001-1.471-1.194-1.918-1.279-7.147-1.36-4.363-.069-4.921-.038-4.313.237c1.437.649,1.401.416,1.373,8.99-.028,8.508-.071,8.82-1.278,9.256-.686.249-.288.287,2.936.281c2.834-.005,3.527-.06,2.885-.231-1.147-.306-1.388-.945-1.543-4.091-.15-3.05-.03-3.33,1.425-3.325c1.264.005,1.185-.07,3.239,3.056.979,1.49,2.272,3.142,2.873,3.671l1.093.962l5.387-.021c3.581-.014,5.146-.091,4.668-.23-1.465-.425-1.496-.547-1.747-6.725-.293-7.211-.402-7.024,2.279-3.921c2.516,2.913,10.528,11.23,10.901,11.316.559.131.632-.763.742-9.044.125-9.511.09-9.193,1.079-9.796l.751-.458-2.913.008c-2.605.007-2.84.041-2.215.313.385.168.836.469,1.002.669.394.475.723,12.528.342,12.528-.135,0-1.279-1.118-2.543-2.484s-2.405-2.598-2.537-2.739c-.132-.14-1.908-2.091-3.947-4.334-4.042-4.447-4.162-4.558-4.499-4.135M129.65,170.674c-.459,1.226-3.065,7.847-5.121,13.009-1.972,4.951-3.55,6.287-3.55,3.005c0-.76-.104-1.373-.233-1.373-.128,0-.233.142-.233.315c0,1.062-1.066,1.549-3.384,1.549-3.697,0-3.606.224-3.608-8.905-.001-7.303.064-7.727,1.275-8.247.619-.266.261-.303-2.908-.301-3.481.002-3.581.015-2.737.362c1.217.5,1.223.55,1.206,9.283-.017,8.395-.044,8.576-1.33,8.948-.496.143,2.424.217,8.572.217c6.191,0,9.07-.073,8.567-.219-.962-.277-.952-2.653.015-3.62.087-.087.162-.378.165-.645.014-1.328.582-1.555,3.72-1.484l2.896.066.421,1.166c.231.641.636,1.769.9,2.506.264.738.413,1.551.332,1.807-.143.45-.045.464,2.957.441c2.537-.02,2.943-.067,2.223-.258-1.363-.361-1.799-1.164-4.794-8.821-4.062-10.384-3.842-9.885-4.398-9.966-.4-.059-.574.153-.953,1.165m41.188-.301l.724.677-.028,7.773c-.032,9.041-.03,9.026-1.138,9.425-.712.257-.312.293,3.147.286c2.381-.006,3.608-.078,3.073-.182-1.721-.333-1.666-.062-1.748-8.581-.084-8.785-.063-8.994.96-9.618l.745-.454-3.229-.001-3.23-.001.724.676m37.477-.351c1.322.602,1.343.738,1.331,8.766-.011,8.365-.115,9.115-1.313,9.499-.592.191.055.243,2.972.243c2.099,0,3.415-.075,3.01-.172-.395-.094-.834-.243-.975-.33-.441-.272-.774-2.557-.704-4.834l.068-2.192l1.194-.069c1.381-.08,1.491.019,3.457,3.135.635,1.006,1.754,2.433,2.487,3.17l1.333,1.34h8.396c5.876,0,8.445-.077,8.556-.257.348-.564.42-3.307.084-3.195-.176.059-.375.309-.442.556-.374,1.365-1.658,1.88-4.011,1.608-2.032-.234-2.157-.468-2.254-4.221-.103-3.942-.14-3.886,2.479-3.779c1.816.075,1.996.128,2.529.749.709.823.69.846.894-1.109l.167-1.607-.546.194c-.301.106-1.648.2-2.994.208l-2.448.014v-3.147-3.147l2.392-.066l2.393-.067.496.842c.622,1.053.888.738.892-1.058l.003-1.282-5.729-.022c-4.629-.018-5.602.031-5.069.255c1.192.502,1.226.65,1.374,5.963.18,6.465-.13,11.587-.729,12.025-1.405,1.027-3.505-.016-5.947-2.953-4.184-5.034-4.192-5.053-2.801-6.642c2.159-2.468,2.562-4.132,1.494-6.164-1.147-2.182-1.913-2.427-7.883-2.517-4.416-.066-4.823-.041-4.156.263m33.332-.169c.278.057.783.361,1.121.675l.616.571-.072,8.133c-.078,8.85-.089,8.921-1.437,9.185-.275.054,1.681.112,4.346.129c5.401.036,5.805-.055,7.322-1.637c2.584-2.697,1.864-5.964-1.926-8.738l-.685-.501.865-.898c1.653-1.718,1.952-3.992.717-5.46-1.158-1.377-1.595-1.476-6.71-1.522-2.564-.023-4.434.006-4.157.063m28.283,1.285c2.879,1.557,4.224,4.185,4.276,8.349.065,5.367-1.829,8.159-5.536,8.159-5.486,0-8.792-7.69-6.063-14.103c1.024-2.407,4.941-3.693,7.323-2.405m-54.516.054c3.848,1.612,3.073,8.295-.961,8.295-1.96,0-1.866.223-1.866-4.401c0-4.447.352-4.931,2.827-3.894m33.675.056c1.351.885,1.964,3.758,1.11,5.204-.667,1.128-2.837,1.819-3.532,1.124-.301-.301-.414-6.269-.125-6.558.301-.301,1.966-.151,2.547.23m39.364.101c1.545.726,1.99,1.642,1.99,4.095c0,2.973-.822,4.023-3.159,4.036-1.982.01-1.969.037-1.969-4.219c0-4.658.424-5.188,3.138-3.912m-157.213,6.52c1.175,3.32,1.187,3.293-1.422,3.202-2.405-.084-2.418-.114-1.309-3.053.446-1.179.871-2.327.945-2.552.328-.989.82-.327,1.786,2.403m118.264,1.647c2.572,1.703,3.175,5.738,1.113,7.438-1.254,1.033-3.211.867-4.052-.344-.214-.308-.235-7.454-.023-7.667.41-.41,1.919-.118,2.962.573" fill="#f48432" fill-rule="evenodd"/></svg>
